# Blender 3.6.5
# www.blender.org
mtllib bridge.mtl
o Cube
v -12.104797 -1.027302 3.728227
v 10.866089 -1.027302 3.728227
v 10.866089 -0.707832 4.966678
v -12.070087 0.088521 4.940699
v 10.866089 -0.561087 3.728227
v 10.866089 -0.707832 3.982313
v -12.104797 -1.027302 0.514115
v 10.866089 -1.027302 0.514115
v -12.104797 -0.707832 0.514115
v 10.866089 -0.707832 0.514115
v 10.866089 2.709880 4.625685
v 10.866089 2.756433 4.569983
v 10.866089 2.811593 4.482526
v 10.866089 2.846008 4.409849
v -12.104797 2.846008 4.409849
v -12.104797 2.811593 4.482526
v -12.104797 2.756433 4.569983
v -12.104797 2.709880 4.625685
v 10.866089 2.855387 4.382277
v 10.866089 2.872426 4.303689
v 10.866089 2.882035 4.200736
v 10.866089 2.879102 4.128201
v -12.104797 2.879102 4.128201
v -12.104797 2.882035 4.200736
v -12.104797 2.872426 4.303689
v -12.104797 2.855387 4.382277
v 10.866089 2.315410 4.868051
v 10.866089 2.375519 4.867821
v 10.866089 2.431821 4.850756
v -12.104797 2.431821 4.850756
v -12.104797 2.375519 4.867821
v -12.093246 2.315410 4.868051
v 10.866089 2.795955 3.780265
v 10.866089 2.761737 3.732408
v 10.866089 2.714235 3.695575
v -12.104797 2.714235 3.695575
v -12.104797 2.761737 3.732408
v -12.104797 2.795955 3.780265
v 10.866089 2.477603 4.823922
v 10.866089 2.512630 4.798400
v -12.104797 2.512630 4.798400
v -12.104797 2.477603 4.823922
v 10.866089 2.828079 3.871036
v 10.866089 2.815879 3.829449
v -12.104797 2.815879 3.829449
v -12.104797 2.828079 3.871036
v -12.104797 2.844160 3.952090
v -12.104797 2.863020 4.047148
v 10.866089 2.863020 4.047148
v 10.866089 2.844160 3.952090
v -12.104797 2.647710 4.680122
v -12.104797 2.574800 4.743964
v 10.866089 2.574800 4.743964
v 10.866089 2.647710 4.680122
v 10.866089 -0.561087 3.728227
v 10.866089 -0.707832 3.474141
v 10.866089 -0.854576 3.728227
v 10.866089 -0.707832 3.982313
v -12.104797 -0.707832 3.474141
v -12.104797 -0.561087 3.728227
v -12.104797 -0.707832 3.982313
v -12.104797 -0.854576 3.728227
v 10.866089 -0.707832 3.474141
v 10.866089 -0.854576 3.728227
v -12.104797 -0.854576 3.728227
v -12.104797 -0.707832 3.474141
v -12.104797 -0.561087 3.728227
v -12.104797 -0.707832 3.982313
v 10.866089 -0.668001 3.640524
v 10.866089 -0.781204 3.855270
v -12.104797 -0.668001 3.640524
v -12.104797 -0.781204 3.855270
v 10.866089 0.915497 3.717343
v 10.866089 1.237651 3.706459
v -12.104797 1.237651 3.706459
v -12.104797 0.915497 3.717343
v 10.866089 -0.820708 4.900773
v 10.866089 -0.728816 4.966678
v -12.104797 -0.728816 4.966678
v -12.104797 -0.820708 4.900773
v 10.866089 -1.027302 4.057172
v 10.866089 -0.994811 4.339996
v 10.866089 -0.921401 4.646865
v 10.866089 -0.828875 4.886631
v -12.104797 -0.828875 4.886631
v -12.104797 -0.921401 4.646865
v -12.104797 -0.994811 4.339996
v -12.104797 -1.027302 4.057172
v -12.104797 -1.027302 -2.699997
v 10.866089 -1.027302 -2.699997
v 10.866089 -0.707832 -3.938448
v -12.070087 0.088521 -3.912469
v 10.866089 -0.561087 -2.699997
v 10.866089 -0.707832 -2.954082
v 10.866089 2.709880 -3.597455
v 10.866089 2.756433 -3.541754
v 10.866089 2.811593 -3.454296
v 10.866089 2.846008 -3.381619
v -12.104797 2.846008 -3.381619
v -12.104797 2.811593 -3.454296
v -12.104797 2.756433 -3.541754
v -12.104797 2.709880 -3.597455
v 10.866089 2.855387 -3.354046
v 10.866089 2.872426 -3.275459
v 10.866089 2.882035 -3.172506
v 10.866089 2.879102 -3.099972
v -12.104797 2.879102 -3.099972
v -12.104797 2.882035 -3.172506
v -12.104797 2.872426 -3.275459
v -12.104797 2.855387 -3.354046
v 10.866089 2.315410 -3.839821
v 10.866089 2.375519 -3.839591
v 10.866089 2.431821 -3.822526
v -12.104797 2.431821 -3.822526
v -12.104797 2.375519 -3.839591
v -12.093246 2.315410 -3.839821
v 10.866089 2.795955 -2.752035
v 10.866089 2.761737 -2.704178
v 10.866089 2.714235 -2.667344
v -12.104797 2.714235 -2.667344
v -12.104797 2.761737 -2.704178
v -12.104797 2.795955 -2.752035
v 10.866089 2.477603 -3.795692
v 10.866089 2.512630 -3.770170
v -12.104797 2.512630 -3.770170
v -12.104797 2.477603 -3.795692
v 10.866089 2.828079 -2.842805
v 10.866089 2.815879 -2.801219
v -12.104797 2.815879 -2.801219
v -12.104797 2.828079 -2.842805
v -12.104797 2.844160 -2.923859
v -12.104797 2.863020 -3.018918
v 10.866089 2.863020 -3.018918
v 10.866089 2.844160 -2.923859
v -12.104797 2.647710 -3.651892
v -12.104797 2.574800 -3.715734
v 10.866089 2.574800 -3.715734
v 10.866089 2.647710 -3.651892
v 10.866089 -0.561087 -2.699997
v 10.866089 -0.707832 -2.445911
v 10.866089 -0.854576 -2.699997
v 10.866089 -0.707832 -2.954082
v -12.104797 -0.707832 -2.445911
v -12.104797 -0.561087 -2.699997
v -12.104797 -0.707832 -2.954082
v -12.104797 -0.854576 -2.699997
v 10.866089 -0.707832 -2.445911
v 10.866089 -0.854576 -2.699997
v -12.104797 -0.854576 -2.699997
v -12.104797 -0.707832 -2.445911
v -12.104797 -0.561087 -2.699997
v -12.104797 -0.707832 -2.954082
v 10.866089 -0.668001 -2.612294
v 10.866089 -0.781204 -2.827040
v -12.104797 -0.668001 -2.612294
v -12.104797 -0.781204 -2.827040
v 10.866089 0.915497 -2.689112
v 10.866089 1.237651 -2.678228
v -12.104797 1.237651 -2.678229
v -12.104797 0.915497 -2.689113
v 10.866089 -0.820708 -3.872543
v 10.866089 -0.728816 -3.938448
v -12.104797 -0.728816 -3.938448
v -12.104797 -0.820708 -3.872543
v 10.866089 -1.027302 -3.028942
v 10.866089 -0.994811 -3.311766
v 10.866089 -0.921401 -3.618635
v 10.866089 -0.828875 -3.858401
v -12.104797 -0.828875 -3.858401
v -12.104797 -0.921401 -3.618635
v -12.104797 -0.994811 -3.311766
v -12.104797 -1.027302 -3.028942
vn -0.0000 -0.9467 -0.3220
vn -0.0000 -0.8135 0.5816
vn -1.0000 -0.0000 -0.0000
vn 0.9998 0.0040 -0.0174
vn -0.0000 0.8660 -0.5001
vn -0.0000 1.0000 -0.0000
vn -0.0000 -0.9957 -0.0929
vn -0.0000 -0.9268 0.3755
vn -0.0000 -0.0326 -0.9995
vn -0.0000 -1.0000 -0.0000
vn -0.0000 -0.2901 -0.9570
vn -0.0000 -0.9038 -0.4280
vn -0.0000 -0.7673 -0.6413
vn -0.0000 -0.9773 -0.2119
vn -0.0000 -0.9992 0.0404
vn -0.0000 -0.8458 -0.5335
vn -0.0000 -0.0038 -1.0000
vn -0.0000 -0.6588 -0.7524
vn -0.0000 -0.6128 0.7903
vn 1.0000 -0.0000 -0.0000
vn -0.0000 -0.6588 -0.7523
vn -0.0000 -0.5889 -0.8082
vn -0.0000 -0.9596 0.2815
vn -0.0000 -0.5057 -0.8627
vn -0.0000 -0.9809 0.1946
vn -0.0000 0.0074 1.0000
vn -0.0000 -0.6342 0.7731
vn -0.0000 -0.9725 0.2328
vn -0.0000 0.0338 0.9994
vn -0.0000 -0.0310 -0.9995
vn -0.0000 0.5828 -0.8126
vn 0.9997 -0.0249 -0.0005
vn -0.0000 0.9935 -0.1141
vn -0.0000 0.9329 -0.3600
vn -0.0000 0.9726 -0.2327
vn -0.0000 -0.9467 0.3220
vn -0.0000 -0.8135 -0.5816
vn 0.9998 0.0040 0.0174
vn -0.0000 0.8660 0.5001
vn -0.0000 -0.9957 0.0929
vn -0.0000 -0.9268 -0.3755
vn -0.0000 -0.0326 0.9995
vn -0.0000 -0.2901 0.9570
vn -0.0000 -0.9038 0.4280
vn -0.0000 -0.7673 0.6413
vn -0.0000 -0.9773 0.2119
vn -0.0000 -0.9992 -0.0404
vn -0.0000 -0.8458 0.5335
vn -0.0000 -0.0038 1.0000
vn -0.0000 -0.6588 0.7524
vn -0.0000 -0.6128 -0.7903
vn -0.0000 -0.6588 0.7523
vn -0.0000 -0.5889 0.8082
vn -0.0000 -0.9596 -0.2815
vn -0.0000 -0.5057 0.8627
vn -0.0000 -0.9809 -0.1946
vn -0.0000 0.0074 -1.0000
vn -0.0000 -0.6342 -0.7731
vn -0.0000 -0.9725 -0.2328
vn -0.0000 0.0338 -0.9994
vn -0.0000 -0.0310 0.9995
vn -0.0000 0.5828 0.8126
vn 0.9997 -0.0249 0.0005
vn -0.0000 0.9935 0.1141
vn -0.0000 0.9329 0.3600
vn -0.0000 0.9726 0.2327
vt 0.253769 0.999946
vt 0.253769 0.000054
vt 0.255052 0.000054
vt 0.255052 0.999946
vt 0.309872 0.492716
vt 0.309872 0.000068
vt 0.311376 0.000068
vt 0.311376 0.492716
vt 0.414934 0.500000
vt 0.580653 0.500000
vt 0.587757 0.501317
vt 0.593733 0.503624
vt 0.598071 0.506326
vt 0.601188 0.508711
vt 0.606354 0.513526
vt 0.612413 0.519173
vt 0.617579 0.523987
vt 0.620846 0.528545
vt 0.623853 0.535311
vt 0.625000 0.540687
vt 0.625000 0.542647
vt 0.623853 0.548022
vt 0.620846 0.554789
vt 0.617579 0.559346
vt 0.612413 0.564161
vt 0.606354 0.569808
vt 0.601189 0.574623
vt 0.598071 0.577008
vt 0.593733 0.579709
vt 0.587757 0.582016
vt 0.580653 0.583333
vt 0.531528 0.583333
vt 0.482402 0.583333
vt 0.433277 0.583333
vt 0.414934 0.566236
vt 0.030058 0.997036
vt 0.000039 0.955500
vt 0.004427 0.545115
vt 0.004360 0.455554
vt 0.008749 0.045170
vt 0.013366 0.032078
vt 0.019259 0.022711
vt 0.025256 0.017320
vt 0.030310 0.014053
vt 0.040129 0.009825
vt 0.051644 0.004866
vt 0.061463 0.000638
vt 0.070206 0.000039
vt 0.082562 0.003015
vt 0.091956 0.007984
vt 0.095239 0.010672
vt 0.103855 0.020452
vt 0.114170 0.036041
vt 0.120695 0.049144
vt 0.127008 0.066584
vt 0.134412 0.087036
vt 0.140725 0.104475
vt 0.143662 0.114285
vt 0.146715 0.127088
vt 0.148552 0.142785
vt 0.148348 0.159491
vt 0.148498 0.778573
vt 0.107998 0.000068
vt 0.107998 0.492716
vt 0.107603 0.492716
vt 0.107603 0.000068
vt 0.132448 0.492716
vt 0.132448 0.000068
vt 0.195934 0.000068
vt 0.195934 0.492716
vt 0.375000 0.583333
vt 0.396591 0.583333
vt 0.414934 0.586627
vt 0.414934 0.625000
vt 0.375000 0.625000
vt 0.258417 0.999946
vt 0.258417 0.000054
vt 0.262598 0.000054
vt 0.262598 0.999946
vt 0.278284 0.999946
vt 0.278284 0.000054
vt 0.280693 0.000054
vt 0.280693 0.999946
vt 0.076243 0.492716
vt 0.000068 0.492716
vt 0.000068 0.000068
vt 0.103484 0.000068
vt 0.137467 0.999932
vt 0.137467 0.507284
vt 0.195934 0.507284
vt 0.195934 0.999932
vt 0.215578 0.999946
vt 0.215578 0.000054
vt 0.219545 0.000054
vt 0.219545 0.999946
vt 0.250001 0.999946
vt 0.250001 0.000054
vt 0.240882 0.999946
vt 0.240882 0.000054
vt 0.244810 0.000054
vt 0.244810 0.999946
vt 0.265513 0.000054
vt 0.265513 0.999946
vt 0.211405 0.999946
vt 0.211405 0.000054
vt 0.230374 0.000054
vt 0.230374 0.999946
vt 0.225539 0.999946
vt 0.225539 0.000054
vt 0.308092 0.492716
vt 0.308092 0.000068
vt 0.132448 0.500592
vt 0.236046 0.999946
vt 0.236046 0.000054
vt 0.222901 0.999946
vt 0.222901 0.000054
vt 0.276414 0.999946
vt 0.276414 0.000054
vt 0.268949 0.000054
vt 0.268949 0.999946
vt 0.272979 0.000054
vt 0.272979 0.999946
vt 0.424105 0.583333
vt 0.414934 0.583333
vt 0.405762 0.574785
vt 0.414934 0.166667
vt 0.414934 0.183764
vt 0.405762 0.175215
vt 0.257591 0.000068
vt 0.257591 0.492716
vt 0.433277 0.583333
vt 0.414934 0.566236
vt 0.396591 0.166667
vt 0.455107 0.203050
vt 0.000000 0.000000
vt 0.414934 0.163373
vt 0.196070 0.000068
vt 0.246571 0.000068
vt 0.246571 0.492716
vt 0.196070 0.492716
vt 0.104201 0.492716
vt 0.104201 0.000068
vt 0.375000 0.561199
vt 0.379061 0.542168
vt 0.388238 0.521520
vt 0.399803 0.505386
vt 0.400824 0.504435
vt 0.412311 0.500000
vt 0.125950 0.492716
vt 0.125951 0.000068
vt 0.375000 0.166667
vt 0.491411 0.247458
vt 0.412311 0.250000
vt 0.400824 0.245565
vt 0.399803 0.244614
vt 0.388238 0.228480
vt 0.379061 0.207832
vt 0.375000 0.188801
vt 0.120255 0.492716
vt 0.120255 0.000068
vt 0.113694 0.000068
vt 0.113694 0.492716
s 0
usemtl Material
f 14/1/1 15/2/1 26/3/1 19/4/1
f 37/5/2 34/6/2 33/7/2 38/8/2
f 3/9/3 27/10/3 28/11/3 29/12/3 39/13/3 40/14/3 53/15/3 54/16/3 11/17/3 12/18/3 13/19/3 14/20/3 19/21/3 20/22/3 21/23/3 22/24/3 49/25/3 50/26/3 43/27/3 44/28/3 33/29/3 34/30/3 35/31/3 74/32/3 73/33/3 55/34/3 58/35/3
f 61/36/4 60/37/4 76/38/4 75/39/4 36/40/4 37/41/4 38/42/4 45/43/4 46/44/4 47/45/4 48/46/4 23/47/4 24/48/4 25/49/4 26/50/4 15/51/4 16/52/4 17/53/4 18/54/4 51/55/4 52/56/4 41/57/4 42/58/4 30/59/4 31/60/4 32/61/4 4/62/4
f 84/63/5 85/64/5 80/65/5 77/66/5
f 1/67/6 2/68/6 8/69/6 7/70/6
f 2/71/3 57/72/3 56/73/3 10/74/3 8/75/3
f 20/76/7 25/77/7 24/78/7 21/79/7
f 44/80/8 45/81/8 38/82/8 33/83/8
f 4/84/9 32/85/9 27/86/9 3/87/9
f 56/88/10 59/89/10 9/90/10 10/91/10
f 28/92/11 31/93/11 30/94/11 29/95/11
f 15/2/12 14/1/12 13/96/12 16/97/12
f 11/98/13 18/99/13 17/100/13 12/101/13
f 19/4/14 26/3/14 25/77/14 20/76/14
f 23/102/15 22/103/15 21/79/15 24/78/15
f 16/97/16 13/96/16 12/101/16 17/100/16
f 27/104/17 32/105/17 31/93/17 28/92/17
f 52/106/18 53/107/18 40/108/18 41/109/18
f 36/110/19 35/111/19 34/6/19 37/5/19
f 7/70/20 9/90/20 59/89/20 62/112/20 1/67/20
f 18/99/21 11/98/21 54/113/21 51/114/21
f 41/109/22 40/108/22 39/115/22 42/116/22
f 43/117/23 46/118/23 45/81/23 44/80/23
f 42/116/24 39/115/24 29/95/24 30/94/24
f 48/119/25 49/120/25 22/103/25 23/102/25
f 53/107/21 52/106/21 51/114/21 54/113/21
f 49/120/25 48/119/25 47/121/25 50/122/25
f 46/118/25 43/117/25 50/122/25 47/121/25
f 69/123/3 63/124/3 64/72/3 70/125/3
f 71/126/20 67/126/20 68/127/20 72/128/20
f 74/129/26 35/111/26 36/110/26 75/130/26
f 5/131/3 69/123/3 70/125/3 6/132/3
f 66/126/20 71/126/20 72/128/20 65/133/20
f 60/134/27 71/135/27 69/135/27 55/34/27
f 59/136/28 56/73/28 69/135/28 71/135/28
f 55/137/26 73/138/26 76/139/26 60/140/26
f 73/138/29 74/129/29 75/130/29 76/139/29
f 79/141/30 4/84/30 3/87/30 78/142/30
f 79/141/31 78/142/31 77/66/31 80/65/31
f 81/143/3 82/144/3 83/145/3 84/146/3 77/147/3 78/148/3 3/9/3 58/35/3 57/72/3 2/71/3
f 88/149/6 81/150/6 2/68/6 1/67/6
f 1/151/32 62/133/32 61/127/32 4/152/32 79/153/32 80/154/32 85/155/32 86/156/32 87/157/32 88/158/32
f 81/150/33 88/149/33 87/159/33 82/160/33
f 85/64/34 84/63/34 83/161/34 86/162/34
f 82/160/35 87/159/35 86/162/35 83/161/35
f 98/1/36 103/4/36 110/3/36 99/2/36
f 121/5/37 122/8/37 117/7/37 118/6/37
f 91/9/3 142/35/3 139/34/3 157/33/3 158/32/3 119/31/3 118/30/3 117/29/3 128/28/3 127/27/3 134/26/3 133/25/3 106/24/3 105/23/3 104/22/3 103/21/3 98/20/3 97/19/3 96/18/3 95/17/3 138/16/3 137/15/3 124/14/3 123/13/3 113/12/3 112/11/3 111/10/3
f 145/36/38 92/62/38 116/61/38 115/60/38 114/59/38 126/58/38 125/57/38 136/56/38 135/55/38 102/54/38 101/53/38 100/52/38 99/51/38 110/50/38 109/49/38 108/48/38 107/47/38 132/46/38 131/45/38 130/44/38 129/43/38 122/42/38 121/41/38 120/40/38 159/39/38 160/38/38 144/37/38
f 168/63/39 161/66/39 164/65/39 169/64/39
f 89/67/6 7/70/6 8/69/6 90/68/6
f 90/71/3 8/75/3 10/74/3 140/73/3 141/72/3
f 104/76/40 105/79/40 108/78/40 109/77/40
f 128/80/41 117/83/41 122/82/41 129/81/41
f 92/84/42 91/87/42 111/86/42 116/85/42
f 140/88/10 10/91/10 9/90/10 143/89/10
f 112/92/43 113/95/43 114/94/43 115/93/43
f 99/2/44 100/97/44 97/96/44 98/1/44
f 95/98/45 96/101/45 101/100/45 102/99/45
f 103/4/46 104/76/46 109/77/46 110/3/46
f 107/102/47 108/78/47 105/79/47 106/103/47
f 100/97/48 101/100/48 96/101/48 97/96/48
f 111/104/49 112/92/49 115/93/49 116/105/49
f 136/106/50 125/109/50 124/108/50 137/107/50
f 120/110/51 121/5/51 118/6/51 119/111/51
f 7/70/20 89/67/20 146/112/20 143/89/20 9/90/20
f 102/99/52 135/114/52 138/113/52 95/98/52
f 125/109/53 126/116/53 123/115/53 124/108/53
f 127/117/54 128/80/54 129/81/54 130/118/54
f 126/116/55 114/94/55 113/95/55 123/115/55
f 132/119/56 107/102/56 106/103/56 133/120/56
f 137/107/52 138/113/52 135/114/52 136/106/52
f 133/120/56 134/122/56 131/121/56 132/119/56
f 130/118/56 131/121/56 134/122/56 127/117/56
f 153/123/3 154/125/3 148/72/3 147/124/3
f 155/126/20 156/128/20 152/127/20 151/126/20
f 158/129/57 159/130/57 120/110/57 119/111/57
f 93/131/3 94/132/3 154/125/3 153/123/3
f 150/126/20 149/133/20 156/128/20 155/126/20
f 144/134/58 139/34/58 153/135/58 155/135/58
f 143/136/59 155/135/59 153/135/59 140/73/59
f 139/137/57 144/140/57 160/139/57 157/138/57
f 157/138/60 160/139/60 159/130/60 158/129/60
f 163/141/61 162/142/61 91/87/61 92/84/61
f 163/141/62 164/65/62 161/66/62 162/142/62
f 165/143/3 90/71/3 141/72/3 142/35/3 91/9/3 162/148/3 161/147/3 168/146/3 167/145/3 166/144/3
f 172/149/6 89/67/6 90/68/6 165/150/6
f 89/151/63 172/158/63 171/157/63 170/156/63 169/155/63 164/154/63 163/153/63 92/152/63 145/127/63 146/133/63
f 165/150/64 166/160/64 171/159/64 172/149/64
f 169/64/65 170/162/65 167/161/65 168/63/65
f 166/160/66 167/161/66 170/162/66 171/159/66
